<svg width="12" height="14" viewBox="0 0 12 14" fill="none" xmlns="http://www.w3.org/2000/svg">
<path d="M12 1.39535V2.93023C12 3.48837 11.6512 4.18604 11.3023 4.53488L8.30233 7.18604C7.88373 7.53488 7.60466 8.23255 7.60466 8.79069V11.7907C7.60466 12.2093 7.32559 12.7674 6.97675 12.9767L6.00001 13.6046C5.09303 14.1628 3.83722 13.5349 3.83722 12.4186V8.72092C3.83722 8.23255 3.55815 7.60465 3.27908 7.25581L2.95117 6.91395C2.73489 6.68372 2.69303 6.33488 2.86745 6.06279L6.43954 0.327907C6.56512 0.125581 6.78838 0 7.03256 0H10.6047C11.3721 0 12 0.627907 12 1.39535Z" fill="#192252"/>
<path d="M4.84883 1.06744L2.37209 5.03721C2.13488 5.42093 1.5907 5.47674 1.27674 5.14883L0.627907 4.46511C0.27907 4.11628 0 3.48837 0 3.06977V1.46512C0 0.627906 0.627907 0 1.39535 0H4.25581C4.8 0 5.13488 0.6 4.84883 1.06744Z" fill="#192252"/>
</svg>
