<svg width="120" height="24" viewBox="0 0 120 24" fill="none" xmlns="http://www.w3.org/2000/svg">
<path d="M13.7299 3.50965L15.4899 7.02965C15.7299 7.51965 16.3699 7.98965 16.9099 8.07965L20.0999 8.60965C22.1399 8.94965 22.6199 10.4296 21.1499 11.8896L18.6699 14.3696C18.2499 14.7896 18.0199 15.5996 18.1499 16.1796L18.8599 19.2496C19.4199 21.6796 18.1299 22.6196 15.9799 21.3496L12.9899 19.5796C12.4499 19.2596 11.5599 19.2596 11.0099 19.5796L8.01991 21.3496C5.87991 22.6196 4.57991 21.6696 5.13991 19.2496L5.84991 16.1796C5.97991 15.5996 5.74991 14.7896 5.32991 14.3696L2.84991 11.8896C1.38991 10.4296 1.85991 8.94965 3.89991 8.60965L7.08991 8.07965C7.61991 7.98965 8.25991 7.51965 8.49991 7.02965L10.2599 3.50965C11.2199 1.59965 12.7799 1.59965 13.7299 3.50965Z" fill="#F2C94C"/>
<path d="M45.7299 3.50965L47.4899 7.02965C47.7299 7.51965 48.3699 7.98965 48.9099 8.07965L52.0999 8.60965C54.1399 8.94965 54.6199 10.4296 53.1499 11.8896L50.6699 14.3696C50.2499 14.7896 50.0199 15.5996 50.1499 16.1796L50.8599 19.2496C51.4199 21.6796 50.1299 22.6196 47.9799 21.3496L44.9899 19.5796C44.4499 19.2596 43.5599 19.2596 43.0099 19.5796L40.0199 21.3496C37.8799 22.6196 36.5799 21.6696 37.1399 19.2496L37.8499 16.1796C37.9799 15.5996 37.7499 14.7896 37.3299 14.3696L34.8499 11.8896C33.3899 10.4296 33.8599 8.94965 35.8999 8.60965L39.0899 8.07965C39.6199 7.98965 40.2599 7.51965 40.4999 7.02965L42.2599 3.50965C43.2199 1.59965 44.7799 1.59965 45.7299 3.50965Z" fill="#F2C94C"/>
<path d="M77.7299 3.50965L79.4899 7.02965C79.7299 7.51965 80.3699 7.98965 80.9099 8.07965L84.0999 8.60965C86.1399 8.94965 86.6199 10.4296 85.1499 11.8896L82.6699 14.3696C82.2499 14.7896 82.0199 15.5996 82.1499 16.1796L82.8599 19.2496C83.4199 21.6796 82.1299 22.6196 79.9799 21.3496L76.9899 19.5796C76.4499 19.2596 75.5599 19.2596 75.0099 19.5796L72.0199 21.3496C69.8799 22.6196 68.5799 21.6696 69.1399 19.2496L69.8499 16.1796C69.9799 15.5996 69.7499 14.7896 69.3299 14.3696L66.8499 11.8896C65.3899 10.4296 65.8599 8.94965 67.8999 8.60965L71.0899 8.07965C71.6199 7.98965 72.2599 7.51965 72.4999 7.02965L74.2599 3.50965C75.2199 1.59965 76.7799 1.59965 77.7299 3.50965Z" fill="#F2C94C"/>
<path d="M109.73 3.50965L111.49 7.02965C111.73 7.51965 112.37 7.98965 112.91 8.07965L116.1 8.60965C118.14 8.94965 118.62 10.4296 117.15 11.8896L114.67 14.3696C114.25 14.7896 114.02 15.5996 114.15 16.1796L114.86 19.2496C115.42 21.6796 114.13 22.6196 111.98 21.3496L108.99 19.5796C108.45 19.2596 107.56 19.2596 107.01 19.5796L104.02 21.3496C101.88 22.6196 100.58 21.6696 101.14 19.2496L101.85 16.1796C101.98 15.5996 101.75 14.7896 101.33 14.3696L98.8499 11.8896C97.3899 10.4296 97.8599 8.94965 99.8999 8.60965L103.09 8.07965C103.62 7.98965 104.26 7.51965 104.5 7.02965L106.26 3.50965C107.22 1.59965 108.78 1.59965 109.73 3.50965Z" fill="#F2C94C"/>
</svg>
