<svg width="12" height="12" viewBox="0 0 12 12" fill="none" xmlns="http://www.w3.org/2000/svg">
<path d="M8.65167 2.64794V3.34368L4.28528 7.71006C3.7095 7.18826 3.34963 6.42054 3.34963 5.59885V2.64794C3.34963 1.4124 4.18932 0.38678 5.3289 0.0928893C5.44286 0.0629004 5.55082 0.158865 5.55082 0.272823V1.19648C5.55082 1.44239 5.75474 1.64631 6.00065 1.64631C6.24656 1.64631 6.45048 1.44239 6.45048 1.19648V0.272823C6.45048 0.158865 6.55844 0.0629004 6.6724 0.0928893C7.81198 0.38678 8.65167 1.4124 8.65167 2.64794Z" fill="white"/>
<path d="M10.6848 4.68165V5.6353C10.6848 8.07639 8.8075 10.0856 6.42038 10.2956V11.5731C6.42038 11.807 6.23445 11.9929 6.00054 11.9929C5.76663 11.9929 5.58069 11.807 5.58069 11.5731V10.2956C4.92694 10.2356 4.30917 10.0437 3.75737 9.73778L4.37514 9.12001C4.86696 9.34792 5.41875 9.47987 6.00054 9.47987C8.12375 9.47987 9.85111 7.75251 9.85111 5.6353V4.68165C9.85111 4.45374 10.037 4.26781 10.271 4.26781C10.4989 4.26781 10.6848 4.45374 10.6848 4.68165Z" fill="white"/>
<path d="M8.65175 4.84362V5.71329C8.65175 7.26072 7.32024 8.50226 5.73683 8.35232C5.56889 8.33432 5.40095 8.30433 5.24501 8.25035L8.65175 4.84362Z" fill="white"/>
<path d="M11.8606 0.13495C11.6807 -0.0449833 11.3868 -0.0449833 11.2068 0.13495L3.13984 8.20196C2.52206 7.52421 2.1502 6.62454 2.1502 5.63491V4.68126C2.1502 4.45335 1.96427 4.26742 1.73036 4.26742C1.50244 4.26742 1.31651 4.45335 1.31651 4.68126V5.63491C1.31651 6.85246 1.78434 7.96205 2.54606 8.79574L0.13495 11.2068C-0.0449833 11.3868 -0.0449833 11.6807 0.13495 11.8606C0.230914 11.9446 0.344872 11.9926 0.464828 11.9926C0.584783 11.9926 0.698741 11.9446 0.788707 11.8546L11.8606 0.78271C12.0465 0.602776 12.0465 0.314883 11.8606 0.13495Z" fill="white"/>
</svg>
