<svg width="15" height="6" viewBox="0 0 15 6" fill="none" xmlns="http://www.w3.org/2000/svg">
<path d="M6.63014 2.19585L6.63014 0.612039C6.63015 0.278154 6.89554 0.0127575 7.22943 0.00419701C7.3236 0.00419683 7.41349 -8.39297e-05 7.50766 -8.41067e-05C8.39374 0.00419648 9.25842 0.0726855 10.1017 0.205384C10.9407 0.342362 11.7112 0.54783 12.4004 0.826068C13.0895 1.11287 13.6589 1.47672 14.104 1.9219C14.3951 2.21298 14.622 2.54258 14.7761 2.90215C14.9345 3.266 15.0115 3.66837 14.9987 4.10927C14.9944 4.65291 14.8275 5.08525 14.5107 5.40201C14.3908 5.52187 14.2453 5.61604 14.0869 5.67169C13.9243 5.73161 13.7488 5.75302 13.5604 5.71877L11.1676 5.31212C10.9835 5.28215 10.8294 5.23935 10.6967 5.1837C10.5683 5.13233 10.457 5.06384 10.3757 4.98251C10.2729 4.87978 10.2001 4.74708 10.1616 4.5887C10.1188 4.4346 10.0974 4.25053 10.0974 4.04506L10.0846 3.38157C10.0846 3.2874 10.0503 3.21035 9.98184 3.14186C9.9476 3.10762 9.91335 3.08193 9.87054 3.05625C9.82346 3.03485 9.78493 3.02201 9.75069 3.00488C9.53238 2.94068 9.21562 2.88931 8.80468 2.85506C8.38946 2.8251 7.95712 2.8037 7.50766 2.79942C7.42205 2.79942 7.33216 2.8037 7.24655 2.8037C6.90838 2.80798 6.63014 2.5383 6.63014 2.19585Z" fill="white"/>
<path d="M0.509169 5.42312C0.389313 5.30327 0.286579 5.15773 0.209528 4.99507C0.188126 4.94798 0.166723 4.90089 0.149601 4.84953C0.0682698 4.62266 0.0169017 4.38294 0.00405994 4.12183C-0.017343 3.68093 0.0468663 3.28283 0.200967 2.9147C0.205248 2.91042 0.205248 2.90186 0.209529 2.89758C0.359349 2.54229 0.577658 2.21269 0.873018 1.91733C1.30964 1.48071 1.87896 1.11686 2.58097 0.834342C3.28299 0.551823 4.05777 0.342075 4.90105 0.209376C5.19212 0.166571 5.4832 0.123766 5.77428 0.0980821V2.89758C5.56454 2.92755 5.38903 2.96607 5.25205 3.00888C5.22209 3.02172 5.18356 3.03456 5.14076 3.05168C5.09367 3.07309 5.05515 3.10305 5.01662 3.14158C4.94385 3.21435 4.91389 3.29568 4.91389 3.38985L4.90961 4.03622C4.90961 4.25025 4.8882 4.43431 4.84112 4.58413C4.80259 4.74251 4.7341 4.87093 4.62709 4.97794C4.54576 5.05928 4.44302 5.12776 4.31033 5.18341C4.17763 5.23906 4.02353 5.28187 3.84374 5.31611L1.42093 5.72705C1.23259 5.76129 1.06565 5.74845 0.911544 5.68852C0.761724 5.62431 0.629026 5.54298 0.509169 5.42312Z" fill="white"/>
</svg>
