<svg width="12" height="11" viewBox="0 0 12 11" fill="none" xmlns="http://www.w3.org/2000/svg">
<path d="M10.547 3.88019C9.49229 3.88019 9.06109 3.13432 9.58553 2.21947C9.88853 1.68921 9.70789 1.01327 9.17763 0.710262L8.16955 0.133382C7.70921 -0.14049 7.11485 0.0226681 6.84098 0.483006L6.77688 0.593721C6.25244 1.50857 5.39004 1.50857 4.85977 0.593721L4.79568 0.483006C4.53346 0.0226681 3.9391 -0.14049 3.47876 0.133382L2.47068 0.710262C1.94041 1.01327 1.75977 1.69504 2.06278 2.2253C2.59304 3.13432 2.16184 3.88019 1.10714 3.88019C0.501128 3.88019 0 4.37549 0 4.98733V6.01289C0 6.61891 0.495301 7.12004 1.10714 7.12004C2.16184 7.12004 2.59304 7.8659 2.06278 8.78075C1.75977 9.31101 1.94041 9.98695 2.47068 10.29L3.47876 10.8668C3.9391 11.1407 4.53346 10.9776 4.80733 10.5172L4.87143 10.4065C5.39586 9.49165 6.25827 9.49165 6.78853 10.4065L6.85263 10.5172C7.1265 10.9776 7.72086 11.1407 8.1812 10.8668L9.18928 10.29C9.71955 9.98695 9.90019 9.30519 9.59718 8.78075C9.06692 7.8659 9.49812 7.12004 10.5528 7.12004C11.1588 7.12004 11.66 6.62473 11.66 6.01289V4.98733C11.6541 4.38131 11.1588 3.88019 10.547 3.88019ZM5.82707 7.39391C4.78402 7.39391 3.93327 6.54316 3.93327 5.50011C3.93327 4.45707 4.78402 3.60631 5.82707 3.60631C6.87011 3.60631 7.72086 4.45707 7.72086 5.50011C7.72086 6.54316 6.87011 7.39391 5.82707 7.39391Z" fill="white"/>
</svg>
