<svg width="80" height="30" viewBox="0 0 80 30" fill="none" xmlns="http://www.w3.org/2000/svg">
<rect width="79.0389" height="30.0002" rx="6.92109" fill="#EFF3FA" fill-opacity="0.4"/>
<path d="M18.4614 17.7409C18.3691 17.7409 18.2826 17.7121 18.2018 17.6544C18.0114 17.5101 17.9711 17.239 18.1153 17.0486C19.0211 15.8428 19.0211 14.1582 18.1153 12.9524C17.9711 12.762 18.0114 12.4909 18.2018 12.3466C18.3922 12.2024 18.6634 12.2428 18.8076 12.4332C19.9384 13.9447 19.9384 16.0563 18.8076 17.5678C18.7211 17.6832 18.5941 17.7409 18.4614 17.7409Z" fill="white"/>
<path d="M19.5173 19.1832C19.425 19.1832 19.3385 19.1544 19.2577 19.0967C19.0673 18.9524 19.0269 18.6813 19.1711 18.4909C20.7115 16.437 20.7115 13.564 19.1711 11.5101C19.0269 11.3197 19.0673 11.0486 19.2577 10.9043C19.4481 10.7601 19.7192 10.8005 19.8635 10.9909C21.6346 13.3505 21.6346 16.6505 19.8635 19.0101C19.7827 19.1255 19.65 19.1832 19.5173 19.1832Z" fill="white"/>
<path d="M16.1655 10.2578C15.5193 9.90012 14.6943 9.99242 13.852 10.5174L12.1674 11.5732C12.052 11.6424 11.9193 11.6828 11.7866 11.6828H11.25H10.9616C9.56542 11.6828 8.79811 12.4501 8.79811 13.8463V16.154C8.79811 17.5502 9.56542 18.3175 10.9616 18.3175H11.25H11.7866C11.9193 18.3175 12.052 18.3579 12.1674 18.4271L13.852 19.4829C14.3597 19.8002 14.8558 19.9559 15.3174 19.9559C15.6174 19.9559 15.9058 19.8867 16.1655 19.7425C16.8059 19.3848 17.1635 18.6406 17.1635 17.6482V12.3521C17.1635 11.3597 16.8059 10.6155 16.1655 10.2578Z" fill="white"/>
<rect opacity="0.6" x="70.9618" y="14.4232" width="1.15385" height="43.2695" rx="0.576758" transform="rotate(90 70.9618 14.4232)" fill="white"/>
<rect x="53.0772" y="13.8463" width="2.30771" height="25.3848" rx="1.15352" transform="rotate(90 53.0772 13.8463)" fill="#4A74EA"/>
<circle cx="53.0772" cy="14.9999" r="2.30771" transform="rotate(90 53.0772 14.9999)" fill="white"/>
</svg>
