<svg width="14" height="14" viewBox="0 0 14 14" fill="none" xmlns="http://www.w3.org/2000/svg">
<path d="M6.33469 9.06456L5.03975 10.3595C4.76677 10.6325 4.33279 10.6325 4.0528 10.3665C3.97581 10.2895 3.89881 10.2195 3.82181 10.1425C3.10085 9.41454 2.44988 8.65158 1.86891 7.85362C1.29494 7.05566 0.832959 6.25769 0.496976 5.46673C0.167992 4.66877 0 3.90581 0 3.17784C0 2.70187 0.0839958 2.24689 0.251988 1.82691C0.419979 1.39993 0.685966 1.00795 1.05695 0.657968C1.50493 0.216989 1.9949 0 2.51288 0C2.70887 0 2.90486 0.041998 3.07985 0.125994C3.26184 0.20999 3.42283 0.335984 3.54883 0.517975L5.17275 2.80686C5.29874 2.98185 5.38974 3.14285 5.45273 3.29684C5.51573 3.44383 5.55073 3.59082 5.55073 3.72382C5.55073 3.89181 5.50173 4.0598 5.40374 4.22079C5.31274 4.38179 5.17975 4.54978 5.01176 4.71777L4.47978 5.27074C4.40278 5.34774 4.36779 5.43873 4.36779 5.55073C4.36779 5.60673 4.37479 5.65572 4.38879 5.71172C4.40978 5.76772 4.43078 5.80972 4.44478 5.85171C4.57078 6.0827 4.78777 6.38369 5.09575 6.74767C5.41074 7.11165 5.74672 7.48264 6.1107 7.85362C6.1807 7.92361 6.25769 7.99361 6.32769 8.06361C6.60768 8.33659 6.61468 8.78457 6.33469 9.06456Z" fill="white"/>
<path d="M13.9783 11.4312C13.9783 11.6271 13.9433 11.8301 13.8733 12.0261C13.8523 12.0821 13.8313 12.1381 13.8033 12.1941C13.6843 12.4461 13.5303 12.6841 13.3273 12.9081C12.9843 13.2861 12.6064 13.559 12.1794 13.734C12.1724 13.734 12.1654 13.741 12.1584 13.741C11.7454 13.909 11.2974 14 10.8145 14C10.1005 14 9.33753 13.832 8.53257 13.4891C7.72761 13.1461 6.92264 12.6841 6.12468 12.1031C5.8517 11.9001 5.57871 11.6971 5.31972 11.4802L7.60861 9.19126C7.8046 9.33826 7.97959 9.45025 8.12659 9.52725C8.16158 9.54124 8.20358 9.56224 8.25258 9.58324C8.30858 9.60424 8.36457 9.61124 8.42757 9.61124C8.54657 9.61124 8.63756 9.56924 8.71456 9.49225L9.24653 8.96727C9.42152 8.79228 9.58951 8.65929 9.75051 8.57529C9.9115 8.4773 10.0725 8.4283 10.2475 8.4283C10.3805 8.4283 10.5205 8.4563 10.6745 8.5193C10.8285 8.58229 10.9894 8.67329 11.1644 8.79228L13.4813 10.4372C13.6633 10.5632 13.7893 10.7102 13.8663 10.8852C13.9363 11.0602 13.9783 11.2352 13.9783 11.4312Z" fill="white"/>
</svg>
