<svg width="22" height="19" viewBox="0 0 22 19" fill="none" xmlns="http://www.w3.org/2000/svg">
<path d="M14.7378 9.42823C14.7378 11.4956 13.0672 13.1662 10.9998 13.1662C8.9324 13.1662 7.26179 11.4956 7.26179 9.42823C7.26179 7.36085 8.9324 5.69023 10.9998 5.69023C13.0672 5.69023 14.7378 7.36085 14.7378 9.42823Z" stroke="#848FAC" stroke-width="1.5" stroke-linecap="round" stroke-linejoin="round"/>
<path d="M11 18.0635C14.6858 18.0635 18.121 15.8917 20.512 12.1329C21.4518 10.6606 21.4518 8.18602 20.512 6.71379C18.121 2.9549 14.6858 0.783101 11 0.783101C7.31417 0.783101 3.87896 2.9549 1.48789 6.71379C0.548171 8.18602 0.548171 10.6606 1.48789 12.1329C3.87896 15.8917 7.31417 18.0635 11 18.0635Z" stroke="#848FAC" stroke-width="1.5" stroke-linecap="round" stroke-linejoin="round"/>
</svg>
