<svg width="16" height="16" viewBox="0 0 16 16" fill="none" xmlns="http://www.w3.org/2000/svg">
<path d="M2.66644 4C2.66644 3.4477 3.11416 3 3.66644 3H12.3331C12.8854 3 13.3331 3.4477 13.3331 4V7.66667H2.66644V4Z" stroke="#C5D0E6" stroke-linecap="round" stroke-linejoin="round"/>
<path d="M2.00012 11.666V12.9993" stroke="#C5D0E6" stroke-linecap="round" stroke-linejoin="round"/>
<path d="M13.9997 11.666V12.9993" stroke="#C5D0E6" stroke-linecap="round" stroke-linejoin="round"/>
<path d="M7.6665 7.66667V7C7.6665 6.4477 7.2188 6 6.6665 6H4.6665C4.1142 6 3.6665 6.4477 3.6665 7V7.66667" stroke="#C5D0E6" stroke-linecap="round" stroke-linejoin="round"/>
<path d="M12.3331 7.66667V7C12.3331 6.4477 11.8854 6 11.3331 6H9.33308C8.78078 6 8.33308 6.4477 8.33308 7V7.66667" stroke="#C5D0E6" stroke-linecap="round" stroke-linejoin="round"/>
<path d="M1.33322 8.66602C1.33322 8.11372 1.78094 7.66602 2.33322 7.66602H13.6666C14.2189 7.66602 14.6666 8.11372 14.6666 8.66602V11.666H1.33322V8.66602Z" stroke="#C5D0E6" stroke-linecap="round" stroke-linejoin="round"/>
</svg>
