<svg width="14" height="14" viewBox="0 0 14 14" fill="none" xmlns="http://www.w3.org/2000/svg">
<path d="M10.5001 0H3.50002C1.56801 0 0 1.56101 0 3.48602V7.67205V8.37205C0 10.2971 1.56801 11.8581 3.50002 11.8581H4.55003C4.73903 11.8581 4.99103 11.9841 5.11003 12.1381L6.16004 13.5311C6.62204 14.1471 7.37805 14.1471 7.84005 13.5311L8.89005 12.1381C9.02305 11.9631 9.23306 11.8581 9.45006 11.8581H10.5001C12.4321 11.8581 14.0001 10.2971 14.0001 8.37205V3.48602C14.0001 1.56101 12.4321 0 10.5001 0ZM4.20003 7.00004C3.80802 7.00004 3.50002 6.68504 3.50002 6.30004C3.50002 5.91504 3.81502 5.60003 4.20003 5.60003C4.58503 5.60003 4.90003 5.91504 4.90003 6.30004C4.90003 6.68504 4.59203 7.00004 4.20003 7.00004ZM7.00004 7.00004C6.60804 7.00004 6.30004 6.68504 6.30004 6.30004C6.30004 5.91504 6.61504 5.60003 7.00004 5.60003C7.38505 5.60003 7.70005 5.91504 7.70005 6.30004C7.70005 6.68504 7.39205 7.00004 7.00004 7.00004ZM9.80006 7.00004C9.40806 7.00004 9.10006 6.68504 9.10006 6.30004C9.10006 5.91504 9.41506 5.60003 9.80006 5.60003C10.1851 5.60003 10.5001 5.91504 10.5001 6.30004C10.5001 6.68504 10.1921 7.00004 9.80006 7.00004Z" fill="white"/>
</svg>
