<svg width="16" height="16" viewBox="0 0 16 16" fill="none" xmlns="http://www.w3.org/2000/svg">
<path d="M4.99984 4.66667C5.73622 4.66667 6.33317 4.06971 6.33317 3.33333C6.33317 2.59695 5.73622 2 4.99984 2C4.26346 2 3.6665 2.59695 3.6665 3.33333C3.6665 4.06971 4.26346 4.66667 4.99984 4.66667Z" stroke="#C5D0E6" stroke-linecap="round" stroke-linejoin="round"/>
<path d="M11.0002 4.66667C11.7366 4.66667 12.3336 4.06971 12.3336 3.33333C12.3336 2.59695 11.7366 2 11.0002 2C10.2638 2 9.66689 2.59695 9.66689 3.33333C9.66689 4.06971 10.2638 4.66667 11.0002 4.66667Z" stroke="#C5D0E6" stroke-linecap="round" stroke-linejoin="round"/>
<path d="M3.33334 6.66699H6.66668L6.00001 14.0003H4.00001L3.33334 6.66699Z" stroke="#C5D0E6" stroke-linecap="round" stroke-linejoin="round"/>
<path d="M9.33349 6.66699H12.6668L13.3335 10.3337H12.3335L12.0002 14.0003H10.0002L9.66682 10.3337H8.66682L9.33349 6.66699Z" stroke="#C5D0E6" stroke-linecap="round" stroke-linejoin="round"/>
</svg>
