<svg width="14" height="14" viewBox="0 0 14 14" fill="none" xmlns="http://www.w3.org/2000/svg">
<path d="M2.1 4.2C0.937999 4.2 0 5.138 0 6.3V11.9C0 13.062 0.937999 14 2.1 14H3.15C3.92 14 4.55 13.37 4.55 12.6V5.6C4.55 4.83 3.92 4.2 3.15 4.2H2.1ZM2.8 10.5C2.8 10.787 2.562 11.025 2.275 11.025C1.988 11.025 1.75 10.787 1.75 10.5V7.69999C1.75 7.41299 1.988 7.17499 2.275 7.17499C2.562 7.17499 2.8 7.41299 2.8 7.69999V10.5Z" fill="#192252"/>
<path d="M11.9 0H7.7C6.53801 0 5.60001 0.937999 5.60001 2.1V11.9C5.60001 13.062 6.53801 14 7.7 14H8.05C8.246 14 8.4 13.846 8.4 13.65V11.2C8.4 10.815 8.715 10.5 9.1 10.5H10.5C10.885 10.5 11.2 10.815 11.2 11.2V13.65C11.2 13.846 11.354 14 11.55 14H11.9C13.062 14 14 13.062 14 11.9V2.1C14 0.937999 13.062 0 11.9 0ZM8.925 7.69999C8.925 7.98699 8.687 8.22499 8.4 8.22499C8.113 8.22499 7.875 7.98699 7.875 7.69999V4.2C7.875 3.913 8.113 3.675 8.4 3.675C8.687 3.675 8.925 3.913 8.925 4.2V7.69999ZM11.725 7.69999C11.725 7.98699 11.487 8.22499 11.2 8.22499C10.913 8.22499 10.675 7.98699 10.675 7.69999V4.2C10.675 3.913 10.913 3.675 11.2 3.675C11.487 3.675 11.725 3.913 11.725 4.2V7.69999Z" fill="#192252"/>
</svg>
