<svg width="16" height="16" viewBox="0 0 16 16" fill="none" xmlns="http://www.w3.org/2000/svg">
<path d="M14.6135 7.74699C14.5817 7.66516 14.5341 7.59039 14.4735 7.52699L12.8068 5.86033C12.6812 5.73479 12.511 5.66426 12.3335 5.66426C12.1559 5.66426 11.9857 5.73479 11.8601 5.86033C11.7346 5.98586 11.6641 6.15612 11.6641 6.33366C11.6641 6.51119 11.7346 6.68146 11.8601 6.80699L12.3935 7.33366H8.66679V5.33366C8.66679 5.15685 8.59655 4.98728 8.47152 4.86225C8.3465 4.73723 8.17693 4.66699 8.00012 4.66699C7.82331 4.66699 7.65374 4.73723 7.52871 4.86225C7.40369 4.98728 7.33345 5.15685 7.33345 5.33366V7.33366H3.60679L4.14012 6.80699C4.26565 6.68146 4.33618 6.51119 4.33618 6.33366C4.33618 6.15612 4.26565 5.98586 4.14012 5.86033C4.01458 5.73479 3.84432 5.66426 3.66679 5.66426C3.48925 5.66426 3.31899 5.73479 3.19345 5.86033L1.52679 7.52699C1.46609 7.59039 1.41852 7.66516 1.38679 7.74699C1.32011 7.9093 1.32011 8.09135 1.38679 8.25366C1.41852 8.33549 1.46609 8.41026 1.52679 8.47366L3.19345 10.1403C3.25543 10.2028 3.32916 10.2524 3.4104 10.2863C3.49164 10.3201 3.57878 10.3375 3.66679 10.3375C3.75479 10.3375 3.84193 10.3201 3.92317 10.2863C4.00441 10.2524 4.07814 10.2028 4.14012 10.1403C4.2026 10.0783 4.2522 10.0046 4.28605 9.92338C4.31989 9.84214 4.33732 9.755 4.33732 9.66699C4.33732 9.57898 4.31989 9.49185 4.28605 9.41061C4.2522 9.32937 4.2026 9.25563 4.14012 9.19366L3.60679 8.66699H7.33345V10.667C7.33345 10.8438 7.40369 11.0134 7.52871 11.1384C7.65374 11.2634 7.82331 11.3337 8.00012 11.3337C8.17693 11.3337 8.3465 11.2634 8.47152 11.1384C8.59655 11.0134 8.66679 10.8438 8.66679 10.667V8.66699H12.3935L11.8601 9.19366C11.7976 9.25563 11.748 9.32937 11.7142 9.41061C11.6803 9.49185 11.6629 9.57898 11.6629 9.66699C11.6629 9.755 11.6803 9.84214 11.7142 9.92338C11.748 10.0046 11.7976 10.0783 11.8601 10.1403C11.9221 10.2028 11.9958 10.2524 12.0771 10.2863C12.1583 10.3201 12.2454 10.3375 12.3335 10.3375C12.4215 10.3375 12.5086 10.3201 12.5898 10.2863C12.6711 10.2524 12.7448 10.2028 12.8068 10.1403L14.4735 8.47366C14.5341 8.41026 14.5817 8.33549 14.6135 8.25366C14.6801 8.09135 14.6801 7.9093 14.6135 7.74699Z" fill="#C5D0E6"/>
</svg>
