<svg width="24" height="24" viewBox="0 0 24 24" fill="none" xmlns="http://www.w3.org/2000/svg">
<path fill-rule="evenodd" clip-rule="evenodd" d="M5.57999 5.58023C5.79092 5.36955 6.07686 5.25122 6.37499 5.25122C6.67311 5.25122 6.95904 5.36955 7.16999 5.58023L12 10.4102L16.83 5.58023C16.933 5.46969 17.0572 5.38104 17.1952 5.31956C17.3332 5.25807 17.4822 5.22501 17.6332 5.22234C17.7843 5.21967 17.9343 5.24747 18.0744 5.30405C18.2145 5.36063 18.3417 5.44484 18.4485 5.55167C18.5554 5.6585 18.6396 5.78576 18.6961 5.92583C18.7527 6.06591 18.7806 6.21596 18.7779 6.36701C18.7752 6.51807 18.7422 6.66704 18.6807 6.80504C18.6192 6.94304 18.5305 7.06724 18.42 7.17023L13.59 12.0002L18.42 16.8302C18.5305 16.9333 18.6192 17.0575 18.6807 17.1955C18.7422 17.3335 18.7752 17.4824 18.7779 17.6335C18.7806 17.7845 18.7527 17.9345 18.6961 18.0746C18.6396 18.2147 18.5554 18.3419 18.4485 18.4487C18.3417 18.5557 18.2145 18.6398 18.0744 18.6964C17.9343 18.7529 17.7843 18.7808 17.6332 18.7781C17.4822 18.7754 17.3332 18.7424 17.1952 18.6809C17.0572 18.6194 16.933 18.5308 16.83 18.4202L12 13.5902L7.16999 18.4202C6.95672 18.619 6.67464 18.7271 6.38319 18.722C6.09174 18.7168 5.81367 18.5987 5.60754 18.3926C5.40143 18.1865 5.28336 17.9084 5.27822 17.617C5.27307 17.3255 5.38127 17.0435 5.57999 16.8302L10.41 12.0002L5.57999 7.17023C5.36931 6.9593 5.25098 6.67335 5.25098 6.37523C5.25098 6.0771 5.36931 5.79117 5.57999 5.58023Z" fill="white"/>
</svg>
