<svg width="12" height="11" viewBox="0 0 12 11" fill="none" xmlns="http://www.w3.org/2000/svg">
<path d="M11.3561 1.70927C11.1161 1.58049 10.6127 1.44586 9.92784 1.92586L9.06735 2.53464C9.00296 0.714149 8.21271 0 6.29271 0H2.7805C0.778539 0 0 0.778539 0 2.7805V7.46344C0 8.80979 0.73171 10.2439 2.7805 10.2439H6.29271C8.21271 10.2439 9.00296 9.52979 9.06735 7.7093L9.92784 8.31808C10.2908 8.57564 10.6069 8.65759 10.8586 8.65759C11.0752 8.65759 11.2449 8.5932 11.3561 8.53467C11.5961 8.41174 12 8.07808 12 7.241V3.00294C12 2.16586 11.5961 1.8322 11.3561 1.70927ZM5.41465 4.75904C4.81173 4.75904 4.31416 4.26733 4.31416 3.65855C4.31416 3.04977 4.81173 2.55806 5.41465 2.55806C6.01758 2.55806 6.51515 3.04977 6.51515 3.65855C6.51515 4.26733 6.01758 4.75904 5.41465 4.75904Z" fill="white"/>
</svg>
