<svg width="22" height="16" viewBox="0 0 22 16" fill="none" xmlns="http://www.w3.org/2000/svg">
<path d="M7.53825 11.5897C8.44516 10.7234 9.65106 10.24 10.9052 10.24C12.1594 10.24 13.3653 10.7234 14.2722 11.5897" stroke="#C5D0E6" stroke-width="2" stroke-linecap="round" stroke-linejoin="round"/>
<path d="M4.28 8.3313C6.05117 6.60082 8.4291 5.632 10.9053 5.632C13.3815 5.632 15.7594 6.60082 17.5306 8.3313" stroke="#C5D0E6" stroke-width="2" stroke-linecap="round" stroke-linejoin="round"/>
<path d="M1.024 5.07296C3.65837 2.47834 7.20757 1.024 10.9051 1.024C14.6027 1.024 18.1519 2.47834 20.7863 5.07296" stroke="#C5D0E6" stroke-width="2" stroke-linecap="round" stroke-linejoin="round"/>
<path d="M10.906 16C11.5422 16 12.058 15.4842 12.058 14.848C12.058 14.2118 11.5422 13.696 10.906 13.696C10.2698 13.696 9.754 14.2118 9.754 14.848C9.754 15.4842 10.2698 16 10.906 16Z" fill="#C5D0E6"/>
</svg>
