<svg width="12" height="14" viewBox="0 0 12 14" fill="none" xmlns="http://www.w3.org/2000/svg">
<path d="M11.831 4.52958C11.1211 1.4062 8.39662 0 6.00338 0C6.00338 0 6.00338 0 5.99662 0C3.61013 0 0.87886 1.39944 0.169 4.52282C-0.621988 8.01128 1.51435 10.9657 3.44788 12.8248C4.1645 13.5144 5.08394 13.8592 6.00338 13.8592C6.92281 13.8592 7.84225 13.5144 8.55211 12.8248C10.4856 10.9657 12.622 8.01804 11.831 4.52958ZM6.00338 7.91663C4.82704 7.91663 3.8738 6.96339 3.8738 5.78705C3.8738 4.61071 4.82704 3.65747 6.00338 3.65747C7.17972 3.65747 8.13296 4.61071 8.13296 5.78705C8.13296 6.96339 7.17972 7.91663 6.00338 7.91663Z" fill="#192252"/>
</svg>
