<svg width="63" height="24" viewBox="0 0 63 24" fill="none" xmlns="http://www.w3.org/2000/svg">
<path d="M10.4341 6.17141L1.45147e-05 16.6728L5.55698 22.2656L15.9911 11.7642L10.4341 6.17141Z" fill="#769AF2"/>
<path d="M62.3106 16.7553L51.8765 6.25389L46.3195 11.8467L56.7536 22.3481L62.3106 16.7553Z" fill="#769AF2"/>
<path d="M50.0488 20.3578C47.8724 22.6101 44.9792 23.8506 41.9017 23.8506C38.8243 23.8506 35.931 22.6101 33.755 20.3582C33.755 20.3578 23.0032 9.22448 23.0032 9.22448C21.5641 7.73528 19.2228 7.73528 17.784 9.22448C17.0869 9.94569 16.7031 10.9051 16.7031 11.9253C16.7031 12.9456 17.0869 13.9049 17.784 14.6262C18.5036 15.3709 19.4485 15.7432 20.3934 15.7432C21.3384 15.7432 22.2836 15.3706 23.0029 14.6262L23.7659 13.8363L29.3023 19.5694L28.5405 20.3578C26.3645 22.6101 23.4712 23.8506 20.3934 23.8506C17.316 23.8506 14.4224 22.6101 12.2463 20.3578C10.0703 18.1052 8.8718 15.1106 8.8718 11.9253C8.8718 8.74004 10.0703 5.74509 12.2463 3.49281C14.4224 1.24053 17.316 5.53131e-05 20.3934 5.53131e-05C23.4709 5.53131e-05 26.3641 1.24018 28.5402 3.49246L36.6832 11.9246L39.2845 14.6184L39.292 14.6262C40.7311 16.1154 43.0723 16.1154 44.5112 14.6262C45.2083 13.9049 45.592 12.9456 45.592 11.9253C45.592 10.9051 45.2083 9.94569 44.5112 9.22448C43.0723 7.73528 40.7311 7.73528 39.292 9.22448L38.5289 10.0143L32.9926 4.28122L33.7546 3.49281C35.9307 1.24053 38.8239 5.53131e-05 41.9014 5.53131e-05C44.9789 5.53131e-05 47.8724 1.24053 50.0485 3.49281C52.2249 5.74509 53.4234 8.74004 53.4234 11.9253C53.4234 15.1106 52.2249 18.1052 50.0488 20.3578Z" fill="#4A74EA"/>
</svg>
