<svg width="16" height="16" viewBox="0 0 16 16" fill="none" xmlns="http://www.w3.org/2000/svg">
<path d="M10.6666 7.33261H8.66657V3.60595L9.19324 4.13928C9.25521 4.20177 9.32895 4.25136 9.41019 4.28521C9.49143 4.31905 9.57856 4.33648 9.66657 4.33648C9.75458 4.33648 9.84172 4.31905 9.92296 4.28521C10.0042 4.25136 10.0779 4.20177 10.1399 4.13928C10.2024 4.0773 10.252 4.00357 10.2858 3.92233C10.3197 3.84109 10.3371 3.75395 10.3371 3.66595C10.3371 3.57794 10.3197 3.4908 10.2858 3.40956C10.252 3.32832 10.2024 3.25459 10.1399 3.19261L8.47324 1.52595C8.40984 1.46525 8.33507 1.41768 8.25324 1.38595C8.09093 1.31927 7.90888 1.31927 7.74657 1.38595C7.66474 1.41768 7.58997 1.46525 7.52657 1.52595L5.85991 3.19261C5.73437 3.31815 5.66384 3.48841 5.66384 3.66595C5.66384 3.84348 5.73437 4.01374 5.85991 4.13928C5.98544 4.26482 6.1557 4.33534 6.33324 4.33534C6.51077 4.33534 6.68104 4.26482 6.80657 4.13928L7.33324 3.60595V7.33261H5.33324C5.15643 7.33261 4.98686 7.40285 4.86183 7.52788C4.73681 7.6529 4.66657 7.82247 4.66657 7.99928C4.66657 8.17609 4.73681 8.34566 4.86183 8.47068C4.98686 8.59571 5.15643 8.66595 5.33324 8.66595H7.33324V12.3926L6.80657 11.8593C6.74441 11.7971 6.67062 11.7478 6.58941 11.7142C6.50819 11.6805 6.42115 11.6632 6.33324 11.6632C6.24533 11.6632 6.15829 11.6805 6.07707 11.7142C5.99586 11.7478 5.92206 11.7971 5.85991 11.8593C5.79775 11.9214 5.74844 11.9952 5.7148 12.0764C5.68116 12.1577 5.66384 12.2447 5.66384 12.3326C5.66384 12.4205 5.68116 12.5076 5.7148 12.5888C5.74844 12.67 5.79775 12.7438 5.85991 12.8059L7.52657 14.4726C7.58997 14.5333 7.66474 14.5809 7.74657 14.6126C7.82637 14.6479 7.91266 14.6661 7.99991 14.6661C8.08715 14.6661 8.17344 14.6479 8.25324 14.6126C8.33507 14.5809 8.40984 14.5333 8.47324 14.4726L10.1399 12.8059C10.2654 12.6804 10.336 12.5101 10.336 12.3326C10.336 12.1551 10.2654 11.9848 10.1399 11.8593C10.0144 11.7337 9.84411 11.6632 9.66657 11.6632C9.48904 11.6632 9.31877 11.7337 9.19324 11.8593L8.66657 12.3926V8.66595H10.6666C10.8434 8.66595 11.013 8.59571 11.138 8.47068C11.263 8.34566 11.3332 8.17609 11.3332 7.99928C11.3332 7.82247 11.263 7.6529 11.138 7.52788C11.013 7.40285 10.8434 7.33261 10.6666 7.33261Z" fill="#C5D0E6"/>
</svg>
